<?xml version="1.0" standalone="no"?>
<!DOCTYPE svg PUBLIC "-//W3C//DTD SVG 20010904//EN"
 "http://www.w3.org/TR/2001/REC-SVG-20010904/DTD/svg10.dtd">
<svg version="1.0" xmlns="http://www.w3.org/2000/svg"
 width="1810.000000pt" height="2620.000000pt" viewBox="0 0 1810.000000 2620.000000"
 preserveAspectRatio="xMidYMid meet">

<g transform="translate(0.000000,2620.000000) scale(0.100000,-0.100000)"
fill="#000000" stroke="none">
<path d="M8773 26193 c-10 -4 -13 -82 -13 -344 l0 -339 -268 0 c-199 0 -273
-3 -285 -12 -16 -12 -17 -39 -15 -298 l3 -285 280 -5 280 -5 0 -345 0 -345
-60 -40 c-134 -89 -296 -202 -390 -274 -187 -140 -492 -405 -501 -434 -11 -35
108 -134 241 -199 161 -80 386 -95 595 -41 118 31 293 107 372 161 l43 30 35
-25 c74 -53 263 -135 375 -163 256 -65 461 -43 659 70 89 51 186 134 186 160
0 16 -201 201 -350 322 -124 100 -347 263 -470 343 l-130 85 2 348 3 347 275
5 275 5 3 284 c2 201 -1 288 -9 297 -9 11 -65 14 -280 14 l-268 0 -3 335 c-3
285 -5 337 -18 345 -15 10 -544 13 -567 3z"/>
<path d="M3895 23130 c-115 -14 -258 -83 -360 -173 -29 -25 -101 -118 -165
-211 -74 -106 -120 -163 -129 -160 -7 2 -43 24 -80 48 -36 24 -154 99 -261
166 -107 68 -243 154 -302 192 -59 37 -115 68 -126 68 -12 0 -35 -26 -68 -77
-28 -43 -98 -153 -157 -245 -59 -92 -107 -175 -107 -186 0 -14 44 -47 163
-122 89 -57 185 -118 212 -136 28 -17 122 -78 210 -134 88 -56 159 -105 158
-110 -1 -4 -134 -198 -295 -430 -161 -232 -331 -478 -378 -546 -47 -68 -109
-158 -139 -201 -30 -43 -93 -134 -140 -202 -47 -69 -125 -181 -173 -250 -557
-803 -532 -766 -525 -785 3 -7 72 -59 154 -115 81 -56 216 -148 298 -205 83
-58 224 -156 315 -218 133 -92 558 -388 1065 -740 38 -26 77 -48 86 -48 9 0
50 47 96 113 66 93 585 840 633 910 8 12 107 155 219 317 113 162 247 356 298
430 51 74 131 189 177 255 45 66 217 314 380 550 196 284 317 449 355 485 280
269 823 130 983 -253 34 -80 58 -182 58 -251 0 -74 -20 -174 -40 -198 l-17
-22 -154 99 c-85 54 -221 141 -304 193 -82 52 -177 112 -209 133 -33 22 -62
39 -65 39 -14 -1 -31 -20 -80 -90 -76 -111 -243 -353 -263 -380 -10 -14 -18
-30 -18 -36 0 -6 37 -35 83 -65 45 -29 118 -76 162 -104 44 -29 141 -90 215
-137 74 -47 212 -134 305 -193 94 -59 190 -120 215 -136 44 -29 233 -149 565
-359 91 -58 248 -157 348 -221 100 -64 270 -171 377 -238 307 -194 339 -215
340 -228 0 -10 -283 -13 -1367 -15 l-1368 -3 -3 -1271 -2 -1271 -123 -77
c-112 -70 -211 -133 -499 -317 -203 -129 -369 -234 -411 -260 -23 -15 -85 -54
-137 -87 -52 -34 -151 -97 -220 -140 -69 -44 -194 -123 -278 -176 -84 -53
-157 -94 -161 -92 -5 3 5 59 21 123 104 424 1 852 -284 1179 -242 279 -604
444 -973 444 -471 0 -905 -254 -1139 -668 -54 -95 -117 -265 -142 -379 -23
-109 -23 -410 0 -508 41 -173 112 -344 193 -465 12 -19 23 -40 23 -46 0 -6
-19 -16 -42 -23 -85 -25 -241 -102 -331 -163 -335 -229 -548 -613 -564 -1018
-7 -160 6 -269 48 -416 138 -482 553 -848 1051 -929 384 -62 813 73 1096 344
35 34 66 61 70 60 4 0 36 -46 72 -102 189 -295 505 -502 871 -572 116 -22 330
-20 446 4 322 67 559 207 768 454 224 265 324 588 294 949 -33 400 -256 764
-600 981 -121 75 -242 125 -394 162 -75 18 -130 37 -130 43 0 7 23 27 52 45
29 17 110 68 180 113 195 124 460 292 540 343 80 51 237 151 505 320 98 62
182 110 188 106 7 -4 10 -310 10 -918 0 -1142 5 -1220 105 -1661 135 -596 430
-1191 825 -1661 165 -197 263 -296 471 -478 275 -240 531 -410 865 -572 241
-117 574 -239 769 -281 297 -64 368 -76 585 -95 544 -48 1076 8 1569 166 204
65 351 124 546 220 422 206 770 458 1100 796 197 202 309 338 458 559 288 427
490 903 592 1391 82 398 78 320 82 1484 3 572 8 1044 13 1049 8 8 86 -34 175
-95 37 -25 168 -108 510 -324 77 -48 169 -107 205 -130 36 -23 142 -91 235
-150 94 -59 209 -133 258 -163 48 -31 87 -61 87 -66 0 -6 -48 -21 -107 -34
-131 -29 -171 -42 -286 -97 -301 -142 -532 -391 -654 -705 -49 -124 -57 -156
-74 -275 -35 -244 -2 -493 91 -706 55 -125 98 -196 187 -305 199 -248 472
-408 801 -470 110 -21 384 -15 477 11 281 76 442 162 626 333 68 63 168 187
220 274 19 32 39 58 44 58 6 0 35 -25 65 -56 122 -123 301 -232 490 -295 167
-56 283 -72 460 -66 152 6 216 18 365 67 406 135 742 496 846 910 22 86 24
116 24 325 0 219 -1 235 -28 334 -80 305 -269 567 -542 751 -72 49 -262 141
-319 156 -14 3 -29 10 -32 15 -2 5 18 46 45 92 66 109 94 171 131 292 43 139
60 248 60 380 0 594 -411 1117 -995 1267 -124 31 -139 33 -310 33 -172 0 -186
-2 -310 -34 -550 -141 -935 -597 -985 -1166 -11 -129 2 -274 39 -418 16 -61
26 -116 22 -120 -7 -7 -97 47 -344 204 -123 79 -563 358 -772 489 -60 39 -137
87 -170 109 -33 21 -136 87 -230 146 -93 59 -196 125 -228 146 -32 21 -64 40
-70 42 -9 3 -13 308 -17 1278 l-5 1274 -1363 5 c-895 3 -1363 8 -1364 15 -3 9
192 137 585 385 92 58 273 173 402 255 129 83 306 195 393 249 86 55 263 167
392 249 129 82 296 188 370 235 74 47 171 108 215 137 44 28 115 74 159 101
43 27 81 55 84 62 2 7 -19 48 -49 90 -29 42 -92 133 -139 202 -131 190 -153
220 -163 220 -8 0 -181 -107 -422 -261 -287 -184 -316 -201 -330 -189 -38 31
-55 208 -31 320 19 91 78 217 135 287 177 220 529 307 769 190 116 -56 147
-91 419 -487 51 -74 130 -189 176 -255 46 -66 136 -196 201 -290 65 -93 130
-187 144 -208 15 -21 65 -93 112 -161 47 -67 130 -187 185 -266 144 -206 258
-371 354 -512 47 -68 117 -168 156 -223 40 -55 104 -147 143 -205 71 -104 216
-314 321 -463 30 -43 61 -77 70 -77 9 0 50 24 92 53 1122 778 1585 1099 1692
1172 73 50 133 98 135 108 2 10 -20 50 -48 90 -28 39 -88 126 -134 192 -45 66
-118 172 -162 235 -133 191 -167 240 -260 374 -49 71 -133 193 -186 270 -54
78 -136 197 -183 266 -47 69 -99 143 -115 165 -55 77 -375 539 -496 717 -36
53 -63 101 -60 106 5 9 81 58 471 305 237 150 265 170 265 189 0 10 -43 87
-96 171 -183 288 -217 337 -236 337 -15 0 -217 -122 -403 -245 -181 -119 -369
-234 -377 -229 -5 3 -35 45 -68 92 -170 248 -219 301 -351 374 -130 73 -265
98 -431 79 -98 -11 -211 -53 -286 -106 -26 -19 -105 -73 -177 -122 -71 -49
-285 -197 -475 -329 -190 -132 -394 -274 -455 -315 -60 -42 -180 -125 -265
-184 -213 -149 -374 -260 -510 -352 -198 -135 -301 -254 -375 -433 l-38 -90
-2373 0 -2372 0 -32 82 c-39 104 -123 230 -199 300 -33 31 -133 106 -223 168
-89 62 -206 143 -258 180 -52 37 -153 107 -224 156 -71 49 -186 128 -255 176
-69 48 -184 128 -256 177 -71 49 -146 101 -165 115 -19 13 -111 77 -205 142
-93 65 -228 158 -300 207 -71 50 -151 105 -176 122 -134 92 -303 128 -494 105z
m58 -1629 c94 -65 167 -122 167 -130 0 -15 -48 -88 -250 -381 -44 -63 -79
-122 -79 -130 0 -8 43 -44 97 -81 211 -142 282 -195 282 -209 0 -23 -234 -354
-252 -358 -9 -2 -63 29 -120 69 -213 150 -277 191 -286 185 -6 -3 -115 -157
-242 -342 -128 -185 -239 -338 -246 -341 -7 -2 -43 17 -81 43 -37 27 -116 81
-175 122 -60 41 -108 81 -108 90 0 15 26 56 125 197 31 44 97 139 146 210 49
72 114 166 144 210 52 75 54 80 37 96 -9 10 -86 65 -170 123 -203 140 -201
139 -202 153 0 11 79 129 196 296 27 37 55 67 62 67 8 0 40 -18 71 -41 123
-90 317 -219 327 -219 6 0 67 81 135 181 230 336 221 325 244 312 5 -4 85 -58
178 -122z m10469 39 c47 -66 94 -134 244 -352 21 -32 45 -57 53 -58 7 0 30 13
50 28 20 16 86 62 146 102 61 40 126 86 146 102 20 15 44 28 52 28 9 0 29 -19
45 -42 175 -256 212 -312 212 -323 0 -7 -83 -70 -184 -139 -102 -70 -189 -133
-195 -140 -8 -9 5 -35 49 -97 32 -46 97 -140 144 -209 48 -69 127 -183 176
-255 50 -71 90 -137 90 -146 0 -10 -44 -47 -107 -91 -60 -41 -139 -96 -177
-123 -50 -35 -73 -46 -83 -39 -8 5 -51 61 -94 124 -346 502 -382 553 -395 557
-6 2 -40 -18 -77 -44 -172 -124 -310 -214 -325 -211 -10 2 -59 64 -110 138
-51 74 -105 152 -119 173 -21 30 -24 43 -17 55 10 16 123 98 296 215 45 30 78
59 78 69 0 9 -31 61 -69 115 -230 329 -263 380 -259 397 5 23 348 257 363 248
7 -4 37 -41 67 -82z m-5262 -1187 c175 -106 390 -195 599 -248 210 -53 302
-67 491 -72 209 -6 353 10 555 62 74 19 142 35 150 35 29 0 15 -25 -28 -49
-23 -13 -78 -48 -122 -76 -44 -29 -150 -96 -235 -150 -85 -54 -229 -145 -320
-203 -91 -58 -226 -143 -300 -190 -74 -47 -164 -104 -200 -127 -36 -24 -135
-87 -220 -140 -85 -54 -221 -140 -302 -191 -80 -52 -156 -94 -168 -94 -28 0
-56 15 -217 118 -76 49 -201 128 -278 176 -77 49 -169 108 -205 131 -36 24
-128 82 -205 131 -77 48 -169 106 -205 129 -97 62 -389 248 -610 388 -107 68
-195 130 -195 138 0 17 -11 18 159 -26 338 -87 651 -87 1012 0 227 54 491 165
669 279 62 40 72 43 90 32 11 -7 49 -31 85 -53z m3393 -1926 c16 -11 17 -156
14 -2427 l-3 -2415 -21 -135 c-41 -253 -62 -355 -107 -510 -240 -840 -775
-1553 -1517 -2021 -205 -130 -578 -307 -746 -354 -26 -7 -93 -28 -148 -45
-299 -92 -739 -149 -1070 -137 -900 33 -1733 395 -2365 1027 -213 212 -355
394 -548 700 -65 103 -195 372 -255 525 -58 151 -142 421 -157 507 -5 29 -18
99 -29 154 -59 295 -55 111 -58 2724 -3 2253 -2 2396 14 2407 25 19 6971 19
6996 0z m-10348 -2017 c268 -84 447 -254 536 -510 32 -91 33 -102 33 -240 1
-137 -1 -150 -32 -241 -83 -248 -261 -420 -526 -510 -84 -29 -265 -36 -362
-16 -193 41 -381 162 -484 312 -36 53 -93 167 -116 235 -27 80 -27 360 0 440
97 284 313 479 602 544 94 21 256 15 349 -14z m14042 14 c260 -53 472 -223
576 -460 48 -111 62 -179 61 -314 0 -117 -3 -132 -36 -227 -89 -258 -254 -421
-515 -509 -102 -35 -274 -44 -376 -20 -121 28 -221 74 -314 145 -195 149 -312
377 -313 612 0 220 83 414 244 566 91 87 149 125 250 164 151 58 284 72 423
43z m-14774 -2034 c349 -89 585 -369 604 -715 17 -310 -153 -599 -431 -735
-134 -66 -193 -80 -341 -80 -143 0 -217 16 -332 70 -178 83 -317 229 -389 405
-83 202 -84 397 -2 593 56 135 158 259 291 353 159 113 408 159 600 109z
m15508 1 c321 -82 530 -300 595 -623 36 -180 -9 -404 -112 -555 -91 -131 -191
-219 -326 -283 -119 -57 -181 -70 -328 -70 -154 0 -211 13 -350 82 -91 45
-117 63 -196 142 -75 76 -99 108 -141 191 -58 114 -68 145 -83 267 -12 98 0
237 27 323 66 209 242 403 436 482 160 65 333 81 478 44z m-13317 -292 c264
-87 472 -317 521 -573 35 -183 13 -356 -67 -516 -45 -90 -65 -118 -143 -196
-82 -82 -103 -97 -205 -147 -146 -71 -242 -92 -385 -84 -318 17 -595 230 -697
536 -31 91 -32 104 -32 241 0 130 3 154 27 230 73 226 237 404 453 490 116 47
192 60 319 56 92 -3 126 -9 209 -37z m11167 27 c225 -48 417 -186 528 -381 94
-164 125 -374 81 -561 -77 -335 -371 -582 -715 -601 -142 -8 -239 13 -382 82
-100 49 -122 65 -205 147 -113 113 -174 220 -207 364 -101 436 164 852 604
949 80 18 214 18 296 1z"/>
<path d="M7447 17463 c-4 -3 -7 -354 -7 -778 0 -865 -8 -777 75 -825 22 -13
96 -55 165 -95 69 -40 177 -103 240 -140 111 -66 219 -129 460 -270 63 -37
153 -90 200 -117 47 -28 101 -59 120 -70 19 -11 61 -36 92 -55 33 -19 68 -33
80 -31 l23 3 3 774 c1 553 -1 778 -9 787 -6 7 -41 31 -77 52 -37 22 -105 61
-152 89 -91 53 -458 268 -575 335 -38 23 -101 60 -140 83 -256 153 -456 265
-472 265 -11 0 -23 -3 -26 -7z"/>
<path d="M10510 17407 c-58 -35 -181 -108 -275 -162 -93 -54 -190 -110 -215
-125 -25 -15 -112 -67 -195 -115 -82 -48 -190 -111 -240 -140 -49 -29 -146
-86 -215 -125 -69 -40 -133 -80 -142 -88 -17 -14 -18 -64 -18 -782 0 -582 3
-769 12 -778 23 -23 6 -31 338 163 63 37 167 98 230 134 214 125 305 178 505
296 110 65 235 138 277 163 43 24 82 50 88 57 7 8 9 274 8 786 l-3 774 -25 3
c-16 1 -62 -20 -130 -61z"/>
<path d="M6350 16191 c-7 -14 -9 -483 -8 -1472 l3 -1453 85 -51 c47 -29 128
-77 180 -107 52 -30 160 -94 240 -140 80 -47 213 -125 295 -173 246 -143 474
-277 580 -340 39 -23 108 -63 155 -90 47 -27 117 -67 155 -90 128 -76 373
-220 730 -426 77 -45 103 -55 117 -48 17 9 18 76 18 1474 l0 1465 -22 13 c-33
20 -192 112 -363 212 -214 124 -330 192 -410 240 -38 23 -146 86 -240 140 -93
54 -201 117 -240 140 -67 40 -203 120 -405 237 -52 31 -174 102 -270 158 -96
56 -206 120 -245 143 -38 22 -101 59 -140 82 -114 68 -182 105 -193 105 -6 0
-16 -9 -22 -19z"/>
<path d="M11655 16169 c-38 -23 -110 -65 -160 -94 -49 -29 -130 -76 -180 -105
-49 -29 -115 -67 -145 -85 -30 -18 -95 -56 -145 -85 -95 -56 -205 -120 -395
-231 -63 -36 -167 -97 -230 -134 -112 -66 -275 -161 -335 -195 -16 -10 -68
-40 -115 -68 -269 -158 -503 -294 -655 -382 l-80 -47 -3 -1466 c-2 -1413 -1
-1467 16 -1476 21 -11 19 -11 152 66 47 28 153 90 235 138 83 48 186 109 230
135 195 114 289 169 425 248 80 46 181 106 225 131 44 26 134 79 200 117 124
73 229 134 425 249 63 37 136 79 161 94 127 73 329 192 402 236 l82 51 3 1453
c1 990 -1 1458 -8 1472 -15 27 -25 24 -105 -22z"/>
<path d="M7333 22738 c-88 -111 -398 -688 -391 -727 5 -23 148 -123 261 -182
104 -53 251 -108 358 -133 35 -8 131 -20 212 -27 162 -13 390 -2 537 27 211
42 498 139 668 226 82 41 75 42 189 -15 351 -177 801 -268 1170 -238 225 18
368 58 563 157 118 60 263 160 268 186 2 10 -26 77 -62 150 -94 192 -173 333
-303 536 l-33 52 -1714 0 c-1359 0 -1716 -3 -1723 -12z"/>
<path d="M4204 11479 c-18 -5 -54 -29 -82 -54 -79 -71 -94 -121 -121 -389 -11
-109 -23 -134 -81 -173 -38 -27 -89 -29 -130 -8 -41 21 -80 92 -80 145 0 38 5
48 44 85 l44 43 -30 53 c-16 30 -33 58 -37 62 -14 14 -105 -68 -134 -122 -82
-150 24 -375 197 -422 126 -34 281 56 330 190 12 33 23 109 31 204 14 180 25
209 91 239 54 23 91 18 127 -20 31 -32 47 -72 47 -114 0 -22 -11 -41 -40 -70
l-39 -40 32 -65 33 -65 52 41 c73 58 97 107 96 201 0 59 -5 86 -26 130 -29 63
-87 122 -140 145 -41 16 -134 19 -184 4z"/>
<path d="M13726 11465 c-52 -18 -121 -88 -154 -155 -22 -45 -27 -69 -27 -130
0 -64 4 -82 28 -123 17 -29 47 -60 74 -77 108 -69 221 -59 363 30 196 123 190
120 252 120 50 0 62 -4 93 -31 64 -57 62 -140 -5 -210 -33 -35 -42 -39 -84
-39 -26 0 -56 4 -66 10 -16 8 -21 1 -46 -56 -31 -74 -30 -75 41 -95 52 -15
132 -6 183 20 132 68 203 271 138 400 -48 94 -146 154 -251 155 -72 0 -138
-28 -259 -108 -154 -102 -206 -116 -272 -75 -59 36 -70 89 -34 159 27 53 69
74 131 66 l48 -7 31 61 c17 33 28 65 26 69 -8 12 -89 31 -133 31 -21 -1 -56
-7 -77 -15z"/>
<path d="M13417 10958 c-8 -13 -32 -52 -54 -88 -148 -239 -174 -281 -179 -293
-5 -15 15 -29 296 -202 96 -59 191 -117 210 -130 19 -12 69 -43 110 -68 41
-25 108 -67 148 -93 40 -25 74 -45 75 -43 2 2 27 42 57 89 29 47 69 110 88
140 19 30 48 76 63 102 15 26 35 58 44 71 15 24 15 25 -18 44 -19 11 -45 28
-59 37 l-25 16 -89 -146 c-49 -80 -94 -148 -100 -151 -10 -4 -212 114 -242
142 -14 13 -12 17 97 194 28 46 50 85 49 86 -39 28 -99 65 -105 65 -4 0 -15
-12 -24 -28 -75 -128 -143 -232 -151 -232 -5 0 -40 19 -76 43 -37 23 -89 55
-115 71 -31 17 -47 33 -43 41 3 8 42 73 86 145 45 72 80 135 78 141 -2 5 -27
23 -55 39 l-52 30 -14 -22z"/>
<path d="M4570 10901 c-90 -29 -484 -293 -549 -367 -44 -50 -71 -117 -71 -175
0 -54 35 -141 79 -197 85 -107 213 -136 339 -77 l63 30 -40 57 -41 57 -35 -15
c-19 -8 -56 -14 -81 -14 -43 0 -51 4 -90 45 -44 46 -62 94 -49 135 10 30 60
85 109 119 206 141 345 235 368 247 15 8 47 14 72 14 37 0 50 -6 77 -32 35
-36 59 -84 59 -121 0 -25 -56 -117 -71 -117 -17 0 -9 -20 27 -75 42 -63 48
-62 112 10 49 55 77 138 69 204 -12 97 -77 197 -163 247 -47 28 -138 40 -184
25z"/>
<path d="M4845 10229 c-132 -110 -292 -245 -355 -299 -63 -54 -126 -107 -139
-118 l-25 -19 48 -56 c41 -48 50 -54 62 -43 7 8 107 92 220 188 343 287 519
439 519 448 0 12 -74 100 -83 100 -5 0 -116 -90 -247 -201z"/>
<path d="M13078 10336 c-64 -17 -116 -54 -176 -123 -28 -32 -74 -85 -102 -118
l-51 -60 38 -35 c21 -19 113 -96 203 -171 91 -75 240 -199 331 -275 91 -77
172 -145 181 -151 12 -11 29 5 109 103 124 152 143 189 143 279 0 120 -33 162
-294 379 -202 168 -276 201 -382 172z m119 -153 c35 -19 281 -221 350 -287 82
-77 83 -156 3 -249 l-49 -58 -38 34 c-21 18 -119 100 -218 182 -99 81 -207
172 -239 201 l-59 52 43 53 c75 88 137 110 207 72z"/>
<path d="M5210 10113 c-47 -49 -145 -151 -220 -228 -74 -77 -193 -200 -263
-273 l-128 -133 28 -28 c15 -15 97 -94 181 -175 l153 -148 49 49 49 48 -132
127 -132 127 105 105 c57 58 108 106 112 106 4 0 29 -21 55 -47 27 -27 76 -75
111 -107 l63 -60 43 49 43 50 -113 110 -114 110 100 103 101 103 120 -113 c66
-62 124 -114 128 -116 3 -1 27 18 51 44 l45 45 -110 106 c-60 58 -139 135
-175 170 l-66 63 -84 -87z"/>
<path d="M12576 9871 l-49 -50 144 -153 c144 -153 184 -196 379 -403 56 -60
116 -123 131 -140 l29 -29 50 49 c28 27 49 52 48 56 -2 4 -66 74 -143 155
-433 458 -529 559 -534 562 -4 1 -29 -20 -55 -47z"/>
<path d="M5614 9613 c-65 -93 -155 -222 -201 -288 -45 -66 -121 -175 -168
-241 l-84 -122 55 -36 c45 -30 58 -35 70 -25 28 23 284 398 353 517 23 39 44
72 46 72 2 0 -3 -24 -11 -52 -22 -79 -102 -477 -124 -612 -21 -134 -26 -120
53 -172 21 -13 42 -22 47 -19 5 3 52 68 105 143 109 158 273 392 330 472 22
30 61 86 87 124 l47 69 -56 40 -56 40 -24 -29 c-13 -16 -54 -73 -91 -127 -37
-54 -82 -119 -101 -144 -19 -25 -70 -105 -114 -177 -44 -72 -77 -120 -74 -106
29 125 150 761 145 764 -9 7 -95 64 -105 69 -7 5 -54 -53 -129 -160z"/>
<path d="M12284 9624 c-93 -69 -177 -133 -186 -142 -16 -16 0 -40 278 -412
163 -217 298 -397 299 -398 8 -9 114 81 108 92 -4 6 -58 80 -121 165 -62 84
-116 159 -119 167 -3 8 39 45 111 99 64 47 116 88 116 91 0 12 -66 93 -76 94
-12 0 -170 -114 -212 -153 -19 -18 -24 -19 -37 -6 -22 22 -165 221 -164 228 0
3 52 44 115 91 64 47 120 91 126 97 9 11 -9 42 -62 106 -3 4 -83 -49 -176
-119z"/>
<path d="M6257 9344 c-15 -30 -25 -58 -23 -62 2 -4 41 -25 85 -47 45 -21 81
-45 81 -52 0 -7 -83 -180 -185 -383 -102 -203 -185 -373 -185 -378 0 -8 104
-62 119 -62 5 0 93 168 196 373 102 204 190 376 194 380 5 5 48 -12 97 -36
l89 -45 33 60 c18 33 32 61 30 63 -10 7 -494 245 -498 245 -3 0 -18 -25 -33
-56z"/>
<path d="M11720 9255 c-25 -13 -77 -38 -115 -54 -39 -16 -132 -59 -208 -95
l-137 -65 26 -58 c14 -32 27 -60 29 -61 2 -2 43 14 90 37 48 23 90 41 93 41 7
0 78 -150 167 -350 66 -147 194 -422 199 -427 6 -6 126 56 126 66 0 5 -25 62
-56 127 -31 66 -65 139 -76 164 -22 51 -80 179 -163 358 -31 68 -55 126 -53
128 2 2 45 23 95 46 l91 43 -31 62 -32 61 -45 -23z"/>
<path d="M6861 9101 c-5 -14 -37 -98 -71 -186 -33 -88 -76 -198 -95 -245 -19
-47 -51 -128 -71 -180 -20 -52 -54 -140 -75 -195 -21 -54 -37 -100 -36 -100 1
0 27 -11 57 -23 31 -12 60 -22 66 -22 11 0 36 58 134 315 33 88 76 198 95 245
89 224 136 351 133 361 -2 6 -32 22 -65 34 l-62 22 -10 -26z"/>
<path d="M11165 9013 c-11 -3 -81 -24 -155 -48 -74 -23 -163 -51 -198 -61
l-64 -18 7 -35 c3 -20 27 -101 51 -181 59 -189 130 -419 185 -597 24 -79 48
-143 54 -143 5 0 64 18 130 39 66 21 168 54 228 72 59 18 107 38 107 44 0 10
-29 105 -35 112 -2 4 -177 -45 -254 -71 -41 -14 -78 -26 -82 -26 -5 0 -16 26
-24 58 -9 31 -29 96 -45 144 l-29 88 147 46 c81 25 149 46 153 47 3 1 -4 30
-14 65 -15 51 -22 62 -36 57 -27 -11 -285 -84 -287 -82 -2 2 -72 228 -80 258
-3 12 14 21 73 38 111 33 237 73 245 77 11 7 -33 124 -45 123 -7 -1 -21 -3
-32 -6z"/>
<path d="M7294 8923 c-15 -26 -34 -59 -42 -73 -9 -14 -39 -65 -67 -115 -29
-49 -80 -139 -115 -200 -103 -181 -141 -246 -185 -320 -49 -80 -78 -136 -73
-139 9 -6 117 -36 129 -36 8 0 34 38 59 85 26 50 51 85 60 85 8 0 66 -14 129
-31 l113 -32 -3 -105 -4 -106 70 -17 c38 -10 71 -16 73 -14 2 2 8 178 12 392
5 213 12 442 15 509 l7 120 -59 16 c-32 9 -65 20 -75 23 -12 5 -23 -6 -44 -42z
m46 -223 c-5 -36 -14 -143 -20 -239 -5 -96 -11 -176 -13 -177 -4 -4 -171 47
-179 55 -3 3 25 62 63 131 37 69 87 164 110 213 23 48 44 86 45 84 2 -1 -1
-32 -6 -67z"/>
<path d="M8257 8557 c18 -116 54 -346 80 -509 l47 -297 61 -6 c34 -4 70 -5 79
-4 13 3 36 58 86 209 38 113 112 331 164 485 52 153 94 280 93 281 -1 1 -35 4
-74 7 l-73 6 -31 -102 c-17 -56 -51 -163 -74 -237 -24 -74 -60 -191 -80 -260
-20 -69 -41 -141 -48 -160 l-11 -35 -7 30 c-4 17 -7 57 -8 90 -1 59 -85 693
-92 699 -2 2 -36 6 -75 10 l-70 6 33 -213z"/>
<path d="M10046 8759 c-32 -5 -61 -11 -63 -13 -2 -2 -13 -80 -25 -172 -11 -93
-40 -320 -63 -504 -24 -184 -43 -336 -42 -337 1 -1 36 2 77 5 l75 7 7 99 c4
54 9 100 11 103 3 2 62 12 131 22 89 12 129 14 135 7 4 -6 15 -33 24 -61 35
-110 45 -127 75 -121 15 3 46 8 70 11 23 4 42 8 42 9 0 9 -53 154 -78 216 -17
41 -58 147 -92 235 -33 88 -76 198 -94 245 -18 47 -48 124 -67 173 -23 59 -39
87 -49 86 -8 -1 -42 -5 -74 -10z m87 -344 c21 -66 74 -217 102 -286 5 -14 -8
-18 -90 -29 -53 -6 -99 -10 -101 -7 -3 3 4 95 15 206 12 111 21 218 22 238 l1
38 13 -40 c7 -22 24 -76 38 -120z"/>
<path d="M9436 8718 c-121 -5 -222 -11 -224 -13 -3 -2 -1 -34 3 -70 l7 -67
101 4 c85 2 102 0 104 -12 1 -8 7 -161 13 -340 6 -179 13 -364 16 -412 l7 -88
68 0 69 0 0 78 c0 42 -7 228 -15 412 -8 184 -15 342 -15 352 0 13 17 17 105
23 l106 7 -3 67 -3 66 -60 1 c-33 1 -159 -3 -279 -8z"/>
<path d="M8950 8220 l0 -500 69 0 70 0 6 43 c3 23 5 247 3 497 l-3 455 -72 3
-73 3 0 -501z"/>
<path d="M7597 8003 c-3 -4 -22 -66 -42 -138 -21 -71 -41 -140 -46 -152 -7
-20 -4 -23 34 -31 l42 -8 30 60 c86 177 115 238 115 246 0 5 -17 12 -37 15
-21 4 -50 9 -65 11 -14 3 -28 2 -31 -3z"/>
<path d="M9140 6625 c-154 -15 -190 -22 -349 -71 -319 -99 -618 -313 -803
-575 -157 -222 -245 -450 -284 -739 -44 -333 29 -710 192 -995 131 -228 283
-390 497 -532 262 -173 546 -260 878 -270 212 -7 320 5 506 53 464 120 826
438 1003 882 34 83 90 298 90 342 0 7 -138 9 -406 8 l-406 -3 -22 -60 c-86
-237 -293 -409 -547 -455 -107 -20 -251 -14 -360 14 -232 59 -399 196 -504
411 -60 124 -69 156 -86 307 -10 86 -10 127 0 205 18 143 28 177 81 288 101
209 261 347 475 410 228 68 493 32 670 -91 115 -79 229 -222 275 -343 l22 -61
403 0 402 0 -18 98 c-57 313 -240 626 -484 829 -157 130 -315 216 -515 281
-145 47 -199 57 -373 72 -149 12 -159 12 -337 -5z"/>
<path d="M1818 6604 c-5 -4 -8 -711 -8 -1571 l0 -1563 400 0 400 0 0 494 0
493 258 6 c272 5 348 15 512 64 571 172 882 747 711 1316 -100 334 -373 601
-716 701 -203 59 -188 58 -895 63 -360 3 -658 1 -662 -3z m1314 -781 c115 -53
182 -161 182 -293 -1 -135 -74 -241 -200 -290 -55 -22 -74 -23 -279 -24 l-220
-1 -3 318 -2 318 237 -3 c219 -3 242 -5 285 -25z"/>
<path d="M4420 5698 c0 -861 1 -921 20 -1047 24 -162 62 -278 140 -436 73
-146 160 -264 277 -376 275 -261 628 -399 1024 -399 260 0 462 44 674 145 147
71 267 156 386 274 170 171 282 358 353 592 66 221 67 229 64 1244 l-3 910
-397 3 -398 2 0 -879 c0 -991 0 -984 -71 -1148 -136 -309 -474 -457 -809 -353
-89 28 -157 69 -236 142 -106 100 -161 198 -195 348 -17 80 -19 139 -19 988
l0 902 -405 0 -405 0 0 -912z"/>
<path d="M11270 5041 l0 -1571 400 0 400 0 0 495 0 495 188 0 c104 0 238 5
298 11 505 50 880 347 1005 794 25 91 35 300 20 422 -12 96 -53 228 -102 325
-126 250 -375 453 -659 535 -187 55 -189 55 -892 60 l-658 5 0 -1571z m1298
788 c72 -24 138 -84 174 -158 33 -67 33 -217 0 -279 -78 -147 -172 -181 -499
-182 l-173 0 0 320 0 320 218 0 c195 0 225 -2 280 -21z"/>
<path d="M13960 5040 l0 -1570 400 0 400 0 0 525 0 526 101 -3 101 -3 85 -190
c47 -104 98 -219 113 -255 16 -36 52 -117 80 -180 52 -114 87 -194 151 -342
l34 -78 438 0 c241 0 437 3 435 8 -4 8 -48 99 -193 397 -59 121 -146 299 -192
395 -47 96 -110 225 -140 285 -62 126 -66 108 44 177 133 83 267 236 345 393
126 253 130 579 11 840 -137 297 -399 509 -738 595 -169 43 -282 50 -917 50
l-558 0 0 -1570z m1191 840 c191 -36 301 -161 301 -340 0 -145 -65 -251 -191
-313 l-66 -32 -217 -3 -218 -4 0 351 0 351 169 0 c92 0 192 -5 222 -10z"/>
<path d="M1820 2350 l0 -40 7245 0 7245 0 0 40 0 40 -7245 0 -7245 0 0 -40z"/>
<path d="M14076 1198 c-2 -7 -23 -73 -46 -147 -42 -129 -42 -134 -24 -148 10
-7 24 -12 29 -11 6 2 36 32 66 68 31 36 66 71 80 77 16 9 67 12 164 10 l140
-2 8 -195 c9 -214 4 -655 -8 -683 -5 -11 -38 -26 -94 -43 -94 -29 -111 -38
-111 -63 0 -14 31 -16 318 -16 247 0 317 3 316 13 -1 6 -2 18 -2 25 -1 9 -29
19 -73 27 -39 8 -77 19 -84 26 -14 14 -32 811 -20 877 l7 38 132 -3 131 -3 45
-91 c44 -88 46 -90 75 -84 l30 5 3 168 2 167 -34 0 c-28 0 -36 -5 -46 -30 -10
-24 -20 -30 -54 -35 -22 -3 -223 -5 -446 -3 l-405 3 -20 32 c-14 23 -28 32
-48 33 -15 0 -29 -6 -31 -12z"/>
<path d="M10471 1168 c-21 -54 -62 -162 -110 -288 -69 -179 -118 -308 -179
-465 -27 -72 -58 -154 -68 -183 -29 -83 -58 -111 -131 -125 -58 -11 -63 -14
-63 -37 l0 -25 215 0 215 0 0 26 c0 24 -4 27 -50 33 -65 9 -97 24 -103 48 -3
11 16 78 41 149 l47 129 171 0 172 0 26 -62 c68 -165 84 -213 75 -230 -8 -15
-85 -38 -129 -38 -15 0 -20 -7 -20 -27 l0 -28 286 0 c281 0 285 0 280 20 -3
11 -6 23 -6 27 0 4 -24 12 -52 18 -29 6 -58 14 -64 18 -15 9 -77 134 -98 196
-9 26 -34 89 -55 140 -21 50 -42 102 -46 116 -4 14 -26 70 -50 125 -24 55 -63
147 -88 205 -24 58 -61 144 -82 193 l-38 87 -44 0 c-36 0 -45 -4 -52 -22z m60
-486 c33 -79 59 -148 59 -153 0 -5 -58 -9 -130 -9 -71 0 -130 3 -130 8 0 8 72
212 93 262 8 19 17 44 21 55 7 20 8 20 18 1 6 -11 37 -84 69 -164z"/>
<path d="M13400 1172 c-75 -25 -134 -66 -174 -121 -90 -122 -85 -265 12 -398
38 -50 124 -101 253 -147 167 -59 227 -93 260 -144 44 -69 37 -127 -24 -191
-48 -50 -100 -71 -182 -71 -127 0 -216 64 -266 190 l-24 60 -43 0 -44 0 7
-128 c5 -95 11 -130 22 -139 32 -25 206 -58 308 -58 125 0 202 22 279 80 102
76 136 147 136 287 0 90 -13 128 -68 201 -31 41 -54 57 -137 97 -55 26 -122
53 -149 59 -97 23 -191 84 -222 143 -21 41 -17 100 9 138 35 53 81 75 158 75
55 0 73 -5 115 -30 42 -26 55 -41 89 -112 39 -81 41 -82 77 -83 20 0 40 5 43
10 7 11 -11 209 -22 235 -19 50 -306 82 -413 47z"/>
<path d="M15576 1062 c-27 -70 -68 -176 -91 -237 -23 -60 -62 -164 -88 -230
-25 -66 -69 -181 -97 -255 -28 -74 -56 -147 -61 -162 -17 -42 -42 -58 -108
-71 -55 -11 -61 -14 -61 -37 l0 -25 210 0 210 0 0 26 c0 23 -5 26 -61 37 -66
12 -89 25 -89 51 0 15 23 85 76 229 l16 42 173 0 173 0 12 -38 c7 -20 30 -78
51 -129 52 -123 51 -129 -13 -147 -29 -8 -64 -16 -78 -18 -18 -2 -26 -10 -28
-28 l-3 -25 286 0 285 0 0 26 c0 24 -5 27 -59 38 -32 6 -66 20 -74 29 -15 16
-52 104 -187 442 -23 58 -61 150 -85 205 -57 134 -117 277 -146 348 l-23 57
-45 0 -46 0 -49 -128z m41 -229 c3 -16 21 -61 40 -101 31 -68 73 -185 73 -204
0 -4 -58 -8 -129 -8 l-129 0 18 58 c32 102 104 282 112 282 4 0 11 -12 15 -27z"/>
<path d="M11727 1174 c-3 -3 -122 -9 -264 -12 l-258 -7 -3 -31 -3 -31 69 -7
70 -7 7 -35 c11 -63 -6 -907 -19 -922 -7 -7 -39 -16 -71 -20 -54 -6 -60 -9
-63 -32 l-3 -25 283 0 283 0 3 26 c3 25 -1 27 -70 44 -122 29 -114 9 -108 251
l5 209 60 -1 c33 0 70 -6 82 -12 15 -8 65 -98 149 -265 l126 -252 190 -2 c188
-1 189 -1 186 20 -2 15 -17 27 -53 40 -64 24 -76 35 -129 121 -156 256 -192
314 -213 339 -13 16 -23 32 -23 35 0 4 23 18 51 31 239 109 235 389 -6 502
-79 37 -256 64 -278 43z m73 -107 c72 -31 111 -104 113 -208 1 -54 -3 -73 -26
-111 -39 -68 -94 -91 -211 -92 l-91 -1 -3 205 c-1 112 0 211 3 219 7 18 165
10 215 -12z"/>
<path d="M2290 1155 c-352 -70 -558 -401 -465 -750 21 -80 68 -157 136 -224
126 -125 241 -165 474 -165 171 -1 287 18 375 62 31 15 60 38 67 52 8 16 13
75 13 170 0 179 5 190 85 190 61 0 85 7 85 25 0 16 -368 31 -473 20 -87 -10
-83 -27 9 -38 87 -9 130 -23 139 -45 4 -9 9 -64 12 -122 9 -177 -16 -224 -139
-261 -55 -17 -88 -21 -162 -17 -83 3 -102 8 -168 40 -121 60 -227 180 -279
317 -30 77 -37 231 -15 323 34 146 141 292 257 351 145 73 345 74 458 3 51
-33 115 -106 146 -165 14 -29 30 -49 36 -46 6 4 7 37 4 83 -11 148 -6 137 -93
166 -42 14 -104 30 -136 35 -80 15 -286 12 -366 -4z"/>
<path d="M8398 1163 c-12 -3 -18 -14 -18 -34 0 -23 5 -30 28 -35 15 -3 48 -12
74 -21 69 -21 67 13 38 -642 -6 -118 -15 -231 -20 -252 -13 -47 -42 -68 -107
-77 -43 -6 -48 -10 -51 -34 l-3 -27 148 2 c81 1 181 -2 221 -6 l73 -8 -3 33
c-3 30 -7 33 -45 40 -23 4 -56 14 -73 23 -57 29 -59 44 -53 420 3 187 9 346
12 353 6 11 39 -54 181 -363 16 -33 49 -105 75 -160 26 -55 69 -154 95 -220
48 -119 48 -120 81 -120 27 0 34 5 42 30 21 66 100 266 141 355 24 52 65 145
91 205 26 61 64 148 86 193 21 46 39 90 39 98 0 8 4 14 9 14 16 0 21 -84 28
-436 7 -403 17 -362 -94 -384 -58 -12 -63 -15 -63 -39 l0 -26 227 0 c126 0
255 -2 288 -5 59 -5 60 -4 63 21 3 25 -1 28 -69 44 -39 10 -79 25 -89 35 -14
14 -18 48 -23 221 -4 112 -12 309 -19 437 -13 271 -18 257 92 289 61 18 65 21
68 51 l3 32 -108 -5 c-59 -3 -149 -8 -199 -11 l-92 -6 -35 -76 c-35 -77 -112
-257 -138 -322 -21 -56 -157 -342 -166 -351 -8 -8 -40 57 -176 356 -141 310
-170 371 -179 382 -13 16 -329 38 -380 26z"/>
<path d="M12440 1134 c0 -30 3 -34 33 -38 17 -3 48 -8 68 -11 21 -3 42 -12 49
-20 9 -10 11 -128 8 -459 -3 -509 5 -467 -99 -496 -54 -14 -64 -21 -67 -41
l-3 -24 281 0 c273 0 280 0 280 20 0 33 -13 42 -72 48 -31 4 -63 10 -72 13
-14 5 -16 55 -16 463 0 251 4 461 8 467 4 5 39 19 77 30 65 18 70 22 73 49 l3
30 -276 1 -275 1 0 -33z"/>
<path d="M5895 1150 c-49 -4 -156 -8 -237 -9 -114 -1 -148 -4 -148 -14 0 -8
29 -20 73 -30 44 -10 78 -24 88 -36 14 -17 18 -66 24 -338 4 -175 8 -389 9
-476 1 -183 4 -177 -94 -196 -112 -22 -66 -31 153 -29 116 1 221 -1 232 -5 19
-6 55 7 44 17 -2 3 -45 16 -94 29 l-90 23 -12 370 c-7 203 -11 429 -10 503 l2
135 35 9 c51 13 166 2 232 -23 220 -82 237 -409 26 -500 -44 -19 -65 -22 -130
-18 -86 5 -95 -3 -37 -37 28 -16 51 -20 129 -19 116 0 167 20 238 91 73 74 97
130 97 233 0 74 -4 93 -29 144 -42 85 -92 131 -169 155 -76 23 -209 32 -332
21z"/>
<path d="M3168 1143 c-34 -5 -37 -31 -5 -37 102 -21 128 -30 137 -46 6 -11 10
-208 11 -485 1 -534 7 -498 -89 -510 -71 -8 -92 -14 -92 -26 0 -5 102 -9 250
-9 153 0 250 4 250 10 0 5 -31 18 -70 30 -38 11 -76 28 -85 36 -13 13 -15 51
-15 245 l0 229 70 0 c87 0 96 -8 165 -135 27 -50 69 -126 94 -170 25 -45 66
-118 91 -163 l45 -81 158 -1 c160 0 196 9 115 30 -112 29 -166 74 -234 195 -6
11 -42 72 -79 135 -38 63 -80 137 -94 164 -24 47 -24 50 -7 60 128 75 168 118
186 201 30 137 -43 269 -172 311 -44 14 -101 18 -328 20 -151 1 -287 0 -302
-3z m483 -60 c119 -39 195 -163 169 -273 -14 -58 -58 -123 -97 -143 -41 -21
-126 -37 -198 -37 l-64 0 -3 203 c-2 111 -2 217 0 235 l3 32 68 0 c38 0 93 -8
122 -17z"/>
<path d="M4440 1143 c-101 -2 -189 -8 -194 -13 -14 -14 37 -30 94 -30 39 0 52
-4 60 -19 6 -13 10 -154 10 -390 0 -391 5 -446 45 -517 30 -52 113 -114 190
-143 84 -32 236 -40 325 -17 94 24 161 58 204 102 89 91 101 169 94 605 -5
313 -5 331 13 354 13 16 34 26 63 30 43 7 75 20 66 28 -3 2 -85 7 -182 11
-157 6 -178 5 -178 -8 0 -10 9 -16 23 -16 32 0 123 -45 130 -64 15 -37 29
-354 25 -556 -4 -195 -6 -220 -27 -272 -44 -113 -151 -168 -326 -168 -117 0
-222 34 -259 84 -59 79 -59 77 -68 421 -8 304 -4 489 10 512 14 21 53 33 107
33 48 0 56 3 53 18 -4 20 -1 20 -278 15z"/>
<path d="M7035 1140 c-193 -40 -327 -141 -414 -311 -51 -101 -65 -189 -51
-324 7 -66 17 -103 45 -161 43 -89 145 -202 227 -251 145 -87 409 -101 593
-31 56 22 140 80 201 140 154 150 195 402 103 622 -26 61 -47 91 -108 153 -86
88 -146 122 -265 153 -84 21 -251 26 -331 10z m305 -47 c101 -38 206 -138 239
-228 67 -177 67 -375 3 -565 -72 -211 -363 -320 -582 -219 -261 120 -361 510
-209 811 102 202 329 285 549 201z"/>
</g>
</svg>
